<svg version="1.1" xmlns="http://www.w3.org/2000/svg" xmlns:xlink="http://www.w3.org/1999/xlink" x="0px" y="0px" width="166px"
	 height="222px" viewBox="0 0 166 222" style="overflow:visible;enable-background:new 0 0 166 222;" xml:space="preserve">
<style type="text/css">
	.st0{fill:#1071D4;}
</style>
<defs>
</defs>
<path id="Path_3839_2_" class="st0" d="M161.4,0H59.9c-0.2,0-0.4,0.1-0.6,0.1c-0.2,0-0.4,0.1-0.6,0.1c-0.8,0.2-1.5,0.6-2.1,1.1
	L1.4,56.8c-0.5,0.6-0.9,1.3-1.1,2.1c-0.1,0.2-0.1,0.4-0.1,0.6C0.1,59.7,0,59.9,0,60.1v157.2c0,2.6,2.1,4.6,4.6,4.6h156.8
	c2.5,0,4.6-2.1,4.6-4.6V4.6C166,2.1,163.9,0,161.4,0C161.4,0,161.4,0,161.4,0z M55.3,15.8v35.1c0,2.6-2.1,4.6-4.6,4.6h-35L55.3,15.8
	z M133.7,194.2H32.3c-2.6,0-4.6-2.1-4.6-4.6s2.1-4.6,4.6-4.6h101.4c2.6,0,4.6,2.1,4.6,4.6S136.3,194.2,133.7,194.2z M133.7,166.5
	H32.3c-2.6,0-4.6-2.1-4.6-4.6s2.1-4.6,4.6-4.6h101.4c2.6,0,4.6,2.1,4.6,4.6S136.3,166.5,133.7,166.5z M133.7,138.8H32.3
	c-2.6,0-4.6-2.1-4.6-4.6s2.1-4.6,4.6-4.6h101.4c2.6,0,4.6,2.1,4.6,4.6S136.3,138.8,133.7,138.8z M133.7,111H32.3
	c-2.6,0-4.6-2.1-4.6-4.6s2.1-4.6,4.6-4.6h101.4c2.6,0,4.6,2.1,4.6,4.6S136.3,111,133.7,111z M133.7,83.2H32.3
	c-2.6,0-4.6-2.1-4.6-4.6s2.1-4.6,4.6-4.6h101.4c2.6,0,4.6,2.1,4.6,4.6S136.3,83.2,133.7,83.2z M133.7,55.5H87.6
	c-2.6,0-4.6-2.1-4.6-4.6s2.1-4.6,4.6-4.6h46.1c2.6,0,4.6,2.1,4.6,4.6S136.3,55.5,133.7,55.5L133.7,55.5z"/>
</svg>
